<mxfile host="Electron" modified="2025-01-16T00:00:00.000Z" agent="Mozilla/5.0" etag="schema4" version="24.6.4" type="device">
  <diagram name="Schema 4: API Gateway" id="schema4">
    <mxGraphModel dx="1600" dy="1000" grid="1" gridSize="10" guides="1" tooltips="1" connect="1" arrows="1" fold="1" page="1" pageScale="1" pageWidth="1800" pageHeight="1100" math="0" shadow="0">
      <root>
        <mxCell id="0" />
        <mxCell id="1" parent="0" />

        <!-- API Gateway (Nginx) -->
        <mxCell id="nginx" value="nginx&#xa;(API Gateway)" style="rounded=1;whiteSpace=wrap;html=1;fillColor=#ffe6cc;strokeColor=#d79b00;fontStyle=1" vertex="1" parent="1">
          <mxGeometry x="100" y="470" width="120" height="60" as="geometry" />
        </mxCell>

        <!-- Consul -->
        <mxCell id="consul" value="consul&#xa;(Service Discovery)" style="rounded=1;whiteSpace=wrap;html=1;fillColor=#f5f5f5;strokeColor=#666666;fontColor=#333333;" vertex="1" parent="1">
          <mxGeometry x="100" y="300" width="120" height="60" as="geometry" />
        </mxCell>

        <!-- pymongo-api instances -->
        <mxCell id="api1" value="pymongo-api-1" style="rounded=1;whiteSpace=wrap;html=1;fillColor=#dae8fc;strokeColor=#6c8ebf;" vertex="1" parent="1">
          <mxGeometry x="300" y="400" width="120" height="60" as="geometry" />
        </mxCell>

        <mxCell id="api2" value="pymongo-api-2" style="rounded=1;whiteSpace=wrap;html=1;fillColor=#dae8fc;strokeColor=#6c8ebf;" vertex="1" parent="1">
          <mxGeometry x="300" y="480" width="120" height="60" as="geometry" />
        </mxCell>

        <mxCell id="api3" value="pymongo-api-3" style="rounded=1;whiteSpace=wrap;html=1;fillColor=#dae8fc;strokeColor=#6c8ebf;" vertex="1" parent="1">
          <mxGeometry x="300" y="560" width="120" height="60" as="geometry" />
        </mxCell>

        <!-- Redis Cache -->
        <mxCell id="redis" value="redis&#xa;(Cache)" style="shape=cylinder3;whiteSpace=wrap;html=1;boundedLbl=1;backgroundOutline=1;size=15;fillColor=#f8cecc;strokeColor=#b85450;" vertex="1" parent="1">
          <mxGeometry x="320" y="240" width="80" height="100" as="geometry" />
        </mxCell>

        <!-- mongos_router -->
        <mxCell id="mongos" value="mongos_router&#xa;(Router)" style="rounded=1;whiteSpace=wrap;html=1;fillColor=#fff2cc;strokeColor=#d6b656;" vertex="1" parent="1">
          <mxGeometry x="500" y="480" width="120" height="60" as="geometry" />
        </mxCell>

        <!-- configSrv -->
        <mxCell id="config" value="configSrv&#xa;(Config Server)" style="shape=cylinder3;whiteSpace=wrap;html=1;boundedLbl=1;backgroundOutline=1;size=15;fillColor=#e1d5e7;strokeColor=#9673a6;" vertex="1" parent="1">
          <mxGeometry x="520" y="300" width="80" height="100" as="geometry" />
        </mxCell>

        <!-- Shard 1 Replica Set Group -->
        <mxCell id="shard1_group" value="Replica Set: shard1" style="rounded=1;whiteSpace=wrap;html=1;fillColor=#d5e8d4;strokeColor=#82b366;dashed=1;verticalAlign=top;align=center;" vertex="1" parent="1">
          <mxGeometry x="700" y="240" width="320" height="180" as="geometry" />
        </mxCell>

        <mxCell id="shard1-1" value="shard1-1&#xa;(PRIMARY)" style="shape=cylinder3;whiteSpace=wrap;html=1;boundedLbl=1;backgroundOutline=1;size=15;fillColor=#d5e8d4;strokeColor=#82b366;fontStyle=1;fontSize=10;" vertex="1" parent="1">
          <mxGeometry x="720" y="270" width="70" height="90" as="geometry" />
        </mxCell>

        <mxCell id="shard1-2" value="shard1-2&#xa;(SECONDARY)" style="shape=cylinder3;whiteSpace=wrap;html=1;boundedLbl=1;backgroundOutline=1;size=15;fillColor=#d5e8d4;strokeColor=#82b366;fontSize=10;" vertex="1" parent="1">
          <mxGeometry x="810" y="270" width="70" height="90" as="geometry" />
        </mxCell>

        <mxCell id="shard1-3" value="shard1-3&#xa;(SECONDARY)" style="shape=cylinder3;whiteSpace=wrap;html=1;boundedLbl=1;backgroundOutline=1;size=15;fillColor=#d5e8d4;strokeColor=#82b366;fontSize=10;" vertex="1" parent="1">
          <mxGeometry x="900" y="270" width="70" height="90" as="geometry" />
        </mxCell>

        <!-- Shard 2 Replica Set Group -->
        <mxCell id="shard2_group" value="Replica Set: shard2" style="rounded=1;whiteSpace=wrap;html=1;fillColor=#d5e8d4;strokeColor=#82b366;dashed=1;verticalAlign=top;align=center;" vertex="1" parent="1">
          <mxGeometry x="700" y="520" width="320" height="180" as="geometry" />
        </mxCell>

        <mxCell id="shard2-1" value="shard2-1&#xa;(PRIMARY)" style="shape=cylinder3;whiteSpace=wrap;html=1;boundedLbl=1;backgroundOutline=1;size=15;fillColor=#d5e8d4;strokeColor=#82b366;fontStyle=1;fontSize=10;" vertex="1" parent="1">
          <mxGeometry x="720" y="550" width="70" height="90" as="geometry" />
        </mxCell>

        <mxCell id="shard2-2" value="shard2-2&#xa;(SECONDARY)" style="shape=cylinder3;whiteSpace=wrap;html=1;boundedLbl=1;backgroundOutline=1;size=15;fillColor=#d5e8d4;strokeColor=#82b366;fontSize=10;" vertex="1" parent="1">
          <mxGeometry x="810" y="550" width="70" height="90" as="geometry" />
        </mxCell>

        <mxCell id="shard2-3" value="shard2-3&#xa;(SECONDARY)" style="shape=cylinder3;whiteSpace=wrap;html=1;boundedLbl=1;backgroundOutline=1;size=15;fillColor=#d5e8d4;strokeColor=#82b366;fontSize=10;" vertex="1" parent="1">
          <mxGeometry x="900" y="550" width="70" height="90" as="geometry" />
        </mxCell>

        <!-- Connections: Nginx to API instances -->
        <mxCell id="conn_nginx_api1" style="edgeStyle=orthogonalEdgeStyle;rounded=0;orthogonalLoop=1;jettySize=auto;html=1;exitX=1;exitY=0.25;exitDx=0;exitDy=0;entryX=0;entryY=0.5;entryDx=0;entryDy=0;endArrow=classic;endFill=1;strokeColor=#d79b00;" edge="1" parent="1" source="nginx" target="api1">
          <mxGeometry relative="1" as="geometry" />
        </mxCell>

        <mxCell id="conn_nginx_api2" style="edgeStyle=orthogonalEdgeStyle;rounded=0;orthogonalLoop=1;jettySize=auto;html=1;exitX=1;exitY=0.5;exitDx=0;exitDy=0;entryX=0;entryY=0.5;entryDx=0;entryDy=0;endArrow=classic;endFill=1;strokeColor=#d79b00;" edge="1" parent="1" source="nginx" target="api2">
          <mxGeometry relative="1" as="geometry" />
        </mxCell>

        <mxCell id="conn_nginx_api3" style="edgeStyle=orthogonalEdgeStyle;rounded=0;orthogonalLoop=1;jettySize=auto;html=1;exitX=1;exitY=0.75;exitDx=0;exitDy=0;entryX=0;entryY=0.5;entryDx=0;entryDy=0;endArrow=classic;endFill=1;strokeColor=#d79b00;" edge="1" parent="1" source="nginx" target="api3">
          <mxGeometry relative="1" as="geometry" />
        </mxCell>

        <!-- Connections: Consul to API instances -->
        <mxCell id="conn_consul_api1" style="edgeStyle=orthogonalEdgeStyle;rounded=0;orthogonalLoop=1;jettySize=auto;html=1;exitX=1;exitY=0.5;exitDx=0;exitDy=0;entryX=0.5;entryY=0;entryDx=0;entryDy=0;endArrow=classic;endFill=1;dashed=1;strokeColor=#666666;" edge="1" parent="1" source="consul" target="api1">
          <mxGeometry relative="1" as="geometry" />
        </mxCell>

        <mxCell id="conn_consul_api2" style="edgeStyle=orthogonalEdgeStyle;rounded=0;orthogonalLoop=1;jettySize=auto;html=1;exitX=1;exitY=0.5;exitDx=0;exitDy=0;entryX=0.5;entryY=0;entryDx=0;entryDy=0;endArrow=classic;endFill=1;dashed=1;strokeColor=#666666;" edge="1" parent="1" source="consul" target="api2">
          <mxGeometry relative="1" as="geometry" />
        </mxCell>

        <mxCell id="conn_consul_api3" style="edgeStyle=orthogonalEdgeStyle;rounded=0;orthogonalLoop=1;jettySize=auto;html=1;exitX=1;exitY=0.5;exitDx=0;exitDy=0;entryX=0.5;entryY=0;entryDx=0;entryDy=0;endArrow=classic;endFill=1;dashed=1;strokeColor=#666666;" edge="1" parent="1" source="consul" target="api3">
          <mxGeometry relative="1" as="geometry" />
        </mxCell>

        <!-- Connections: API to Redis -->
        <mxCell id="conn_api_redis" style="edgeStyle=orthogonalEdgeStyle;rounded=0;orthogonalLoop=1;jettySize=auto;html=1;exitX=0.5;exitY=0;exitDx=0;exitDy=0;entryX=0.5;entryY=1;entryDx=0;entryDy=0;entryPerimeter=0;endArrow=classic;endFill=1;strokeColor=#b85450;" edge="1" parent="1" source="api2" target="redis">
          <mxGeometry relative="1" as="geometry" />
        </mxCell>

        <!-- Connections: API to Mongos -->
        <mxCell id="conn_api1_mongos" style="edgeStyle=orthogonalEdgeStyle;rounded=0;orthogonalLoop=1;jettySize=auto;html=1;exitX=1;exitY=0.5;exitDx=0;exitDy=0;entryX=0;entryY=0.25;entryDx=0;entryDy=0;endArrow=classic;endFill=1;" edge="1" parent="1" source="api1" target="mongos">
          <mxGeometry relative="1" as="geometry" />
        </mxCell>

        <mxCell id="conn_api2_mongos" style="edgeStyle=orthogonalEdgeStyle;rounded=0;orthogonalLoop=1;jettySize=auto;html=1;exitX=1;exitY=0.5;exitDx=0;exitDy=0;entryX=0;entryY=0.5;entryDx=0;entryDy=0;endArrow=classic;endFill=1;" edge="1" parent="1" source="api2" target="mongos">
          <mxGeometry relative="1" as="geometry" />
        </mxCell>

        <mxCell id="conn_api3_mongos" style="edgeStyle=orthogonalEdgeStyle;rounded=0;orthogonalLoop=1;jettySize=auto;html=1;exitX=1;exitY=0.5;exitDx=0;exitDy=0;entryX=0;entryY=0.75;entryDx=0;entryDy=0;endArrow=classic;endFill=1;" edge="1" parent="1" source="api3" target="mongos">
          <mxGeometry relative="1" as="geometry" />
        </mxCell>

        <!-- Connections: Mongos to Config and Shards -->
        <mxCell id="conn_mongos_config" style="edgeStyle=orthogonalEdgeStyle;rounded=0;orthogonalLoop=1;jettySize=auto;html=1;exitX=0.5;exitY=0;exitDx=0;exitDy=0;entryX=0.5;entryY=1;entryDx=0;entryDy=0;entryPerimeter=0;endArrow=classic;endFill=1;dashed=1;" edge="1" parent="1" source="mongos" target="config">
          <mxGeometry relative="1" as="geometry" />
        </mxCell>

        <mxCell id="conn_mongos_shard1" style="edgeStyle=orthogonalEdgeStyle;rounded=0;orthogonalLoop=1;jettySize=auto;html=1;exitX=1;exitY=0.25;exitDx=0;exitDy=0;entryX=0;entryY=0.5;entryDx=0;entryDy=0;endArrow=classic;endFill=1;" edge="1" parent="1" source="mongos" target="shard1_group">
          <mxGeometry relative="1" as="geometry" />
        </mxCell>

        <mxCell id="conn_mongos_shard2" style="edgeStyle=orthogonalEdgeStyle;rounded=0;orthogonalLoop=1;jettySize=auto;html=1;exitX=1;exitY=0.75;exitDx=0;exitDy=0;entryX=0;entryY=0.5;entryDx=0;entryDy=0;endArrow=classic;endFill=1;" edge="1" parent="1" source="mongos" target="shard2_group">
          <mxGeometry relative="1" as="geometry" />
        </mxCell>

        <!-- Replication arrows -->
        <mxCell id="repl1_1" style="edgeStyle=orthogonalEdgeStyle;rounded=0;orthogonalLoop=1;jettySize=auto;html=1;exitX=1;exitY=0.5;exitDx=0;exitDy=0;exitPerimeter=0;entryX=0;entryY=0.5;entryDx=0;entryDy=0;entryPerimeter=0;endArrow=classic;endFill=1;dashed=1;strokeColor=#82b366;" edge="1" parent="1" source="shard1-1" target="shard1-2">
          <mxGeometry relative="1" as="geometry" />
        </mxCell>

        <mxCell id="repl1_2" style="edgeStyle=orthogonalEdgeStyle;rounded=0;orthogonalLoop=1;jettySize=auto;html=1;exitX=1;exitY=0.5;exitDx=0;exitDy=0;exitPerimeter=0;entryX=0;entryY=0.5;entryDx=0;entryDy=0;entryPerimeter=0;endArrow=classic;endFill=1;dashed=1;strokeColor=#82b366;" edge="1" parent="1" source="shard1-2" target="shard1-3">
          <mxGeometry relative="1" as="geometry" />
        </mxCell>

        <mxCell id="repl2_1" style="edgeStyle=orthogonalEdgeStyle;rounded=0;orthogonalLoop=1;jettySize=auto;html=1;exitX=1;exitY=0.5;exitDx=0;exitDy=0;exitPerimeter=0;entryX=0;entryY=0.5;entryDx=0;entryDy=0;entryPerimeter=0;endArrow=classic;endFill=1;dashed=1;strokeColor=#82b366;" edge="1" parent="1" source="shard2-1" target="shard2-2">
          <mxGeometry relative="1" as="geometry" />
        </mxCell>

        <mxCell id="repl2_2" style="edgeStyle=orthogonalEdgeStyle;rounded=0;orthogonalLoop=1;jettySize=auto;html=1;exitX=1;exitY=0.5;exitDx=0;exitDy=0;exitPerimeter=0;entryX=0;entryY=0.5;entryDx=0;entryDy=0;entryPerimeter=0;endArrow=classic;endFill=1;dashed=1;strokeColor=#82b366;" edge="1" parent="1" source="shard2-2" target="shard2-3">
          <mxGeometry relative="1" as="geometry" />
        </mxCell>

        <!-- Labels -->
        <mxCell id="title" value="Схема 4: API Gateway (Nginx) и Service Discovery (Consul)" style="text;html=1;strokeColor=none;fillColor=none;align=center;verticalAlign=middle;whiteSpace=wrap;rounded=0;fontSize=16;fontStyle=1" vertex="1" parent="1">
          <mxGeometry x="100" y="150" width="920" height="30" as="geometry" />
        </mxCell>

        <mxCell id="legend" value="Добавлены компоненты для горизонтального масштабирования:&#xa;&#xa;- Nginx (API Gateway) - распределяет трафик между несколькими инстансами API&#xa;- Consul (Service Discovery) - отслеживает доступность сервисов&#xa;- 3 инстанса pymongo-api для обработки нагрузки&#xa;&#xa;Оранжевые линии - балансировка нагрузки&#xa;Пунктирные серые - регистрация в Consul" style="text;html=1;strokeColor=#666666;fillColor=#f5f5f5;align=left;verticalAlign=top;whiteSpace=wrap;rounded=1;fontSize=10;fontColor=#333333;" vertex="1" parent="1">
          <mxGeometry x="1100" y="300" width="450" height="180" as="geometry" />
        </mxCell>

      </root>
    </mxGraphModel>
  </diagram>
</mxfile>
